<svg xmlns="http://www.w3.org/2000/svg" width="600" height="450" viewBox="0 0 600 450">
  <rect width="600" height="450" fill="#faf5f0"/>
  <rect width="600" height="80" fill="#2d2d2d"/>
  <circle cx="50" cy="40" r="20" fill="#d4a0a0"/>
  <rect x="80" y="28" width="120" height="24" rx="4" fill="#d4a0a0" opacity="0.5"/>
  <rect x="350" y="28" width="60" height="24" rx="12" fill="#555"/>
  <rect x="420" y="28" width="60" height="24" rx="12" fill="#555"/>
  <rect x="490" y="28" width="60" height="24" rx="12" fill="#555"/>
  <rect x="550" y="28" width="24" height="24" rx="4" fill="#555"/>
  <rect width="600" height="250" y="80" fill="#2d2d2d"/>
  <text x="300" y="170" text-anchor="middle" font-family="serif" font-size="36" font-weight="bold" fill="#fff">زیبایی تو، هنر ماست</text>
  <text x="300" y="210" text-anchor="middle" font-family="sans-serif" font-size="14" fill="rgba(255,255,255,0.7)">بهترین خدمات زیبایی با تیمی حرفه‌ای</text>
  <rect x="210" y="240" width="80" height="36" rx="18" fill="#d4a0a0"/>
  <rect x="310" y="240" width="80" height="36" rx="18" fill="none" stroke="rgba(255,255,255,0.6)" stroke-width="2"/>
  <rect x="50" y="360" width="110" height="70" rx="8" fill="#fff" stroke="#e8ddd5" stroke-width="1"/>
  <rect x="175" y="360" width="110" height="70" rx="8" fill="#fff" stroke="#e8ddd5" stroke-width="1"/>
  <rect x="300" y="360" width="110" height="70" rx="8" fill="#fff" stroke="#e8ddd5" stroke-width="1"/>
  <rect x="425" y="360" width="110" height="70" rx="8" fill="#fff" stroke="#e8ddd5" stroke-width="1"/>
  <circle cx="105" cy="390" r="12" fill="#d4a0a0" opacity="0.3"/>
  <circle cx="230" cy="390" r="12" fill="#b8a0c0" opacity="0.3"/>
  <circle cx="355" cy="390" r="12" fill="#c8a87c" opacity="0.3"/>
  <circle cx="480" cy="390" r="12" fill="#d4a0a0" opacity="0.3"/>
  <rect x="47" y="350" width="490" height="90" rx="8" fill="none" stroke="#d4a0a0" stroke-dasharray="4 4" stroke-width="1" opacity="0.3"/>
</svg>
